<svg width="34" height="33" viewBox="0 0 34 33" fill="none" xmlns="http://www.w3.org/2000/svg">
<path fill-rule="evenodd" clip-rule="evenodd" d="M5.39829 32.0611C9.51301 33.9989 15.1876 32.6733 20.014 30.4782C24.5158 28.4305 29.6334 25.0044 32.238 20.6664C33.8913 17.915 33.5218 14.9561 32.2222 12.3539H27.2411C24.1608 12.3539 22.618 13.8961 22.618 16.9813V24.2473H20.6383V16.9813C20.6383 12.5753 22.8394 10.3742 27.2411 10.3742H31.0161C30.6703 9.89548 30.2984 9.4374 29.9095 9.00481C28.7603 7.72647 27.0251 6.51792 25.5296 5.37184C24.0862 4.2658 22.5203 3.39639 20.4405 2.42504C16.8554 0.74991 11.1633 -0.77901 7.06007 0.439268C4.64718 1.15519 3.68857 2.30733 2.57647 4.03525C2.34349 4.03525 0.957156 6.8862 0.467539 9.94706C-0.41826 15.4918 -0.643351 29.2156 5.39829 32.0611ZM17.6611 11.3662C16.782 11.3662 16.3397 10.9239 16.3397 10.0447C16.3397 9.16077 16.782 8.72271 17.6611 8.72271C18.5457 8.72271 18.9832 9.16077 18.9832 10.0447C18.9832 10.9239 18.5457 11.3662 17.6611 11.3662ZM16.6734 24.2473V15.8194L14.6889 16.2835V19.6241C14.6889 22.705 13.1466 24.2473 10.0615 24.2473H5.43894C2.35381 24.2473 0.815791 22.9258 0.815791 20.2824C0.815791 18.3615 1.48318 17.261 2.8228 16.9813L4.53433 16.5917L12.6904 14.7243C12.6103 13.1444 11.7311 12.3539 10.0615 12.3539H5.43894C3.67523 12.3539 2.79549 13.2373 2.79549 14.9967H0.815791C0.815791 11.9164 2.35381 10.3736 5.43894 10.3736H10.0615C12.8954 10.3736 14.4268 11.675 14.6579 14.2741L18.6537 13.3598V24.2473H16.6734ZM10.0615 22.2627C11.8252 22.2627 12.7043 21.3836 12.7043 19.6241V16.7829L3.33729 18.9343C2.9763 19.0605 2.79549 19.2862 2.79549 19.6241C2.79549 21.3836 3.67523 22.2627 5.43894 22.2627H10.0615Z" fill="url(#paint0_linear_2177_3428)"/>
<defs>
<linearGradient id="paint0_linear_2177_3428" x1="31.7168" y1="47.0517" x2="15.1811" y2="5.42292" gradientUnits="userSpaceOnUse">
<stop stop-color="#8E04B7"/>
<stop offset="1" stop-color="#E13C52"/>
</linearGradient>
</defs>
</svg>
