<svg width="96" height="53" viewBox="0 0 96 53" fill="none" xmlns="http://www.w3.org/2000/svg">
<path fill-rule="evenodd" clip-rule="evenodd" d="M52.6 50.676C58.9865 53.6811 67.7985 51.6218 75.2935 48.2149C82.2851 45.0319 90.2326 39.7132 94.2801 32.9778C96.8429 28.7046 96.2734 24.1099 94.2547 20.069H86.5156C81.7359 20.069 79.341 22.465 79.341 27.2554V38.5386H76.2647V27.2554C76.2647 20.4123 79.6817 16.9948 86.5156 16.9948H92.3784C91.8445 16.2519 91.2649 15.54 90.6598 14.8678C88.875 12.8832 86.1851 11.0074 83.8614 9.2262C81.619 7.50906 79.1884 6.15856 75.9545 4.6504C70.3917 2.04953 61.5493 -0.325088 55.178 1.56697C51.4305 2.6785 49.9407 4.46835 48.2169 7.15109C47.8508 7.15109 45.6999 11.5784 44.9423 16.3312C43.5643 24.9423 43.2135 46.2573 52.6 50.676ZM70.107 38.5386V25.4503L67.0256 26.1718V31.3593C67.0256 36.1431 64.6307 38.5386 59.8408 38.5386H52.661C47.8712 38.5386 45.4813 36.4863 45.4813 32.3819C45.4813 29.3986 46.5186 27.6896 48.5983 27.2549L51.2576 26.6498L63.9239 23.7504C63.7968 21.2965 62.434 20.069 59.8408 20.069H52.661C49.9203 20.069 48.5576 21.4414 48.5576 24.1735H45.4813C45.4813 19.3897 47.8712 16.9943 52.661 16.9943H59.8408C64.2391 16.9943 66.6188 19.015 66.9748 23.0518L73.1833 21.6311V38.5386H70.107ZM13.3453 17.7504C17.7488 18.9133 20.7386 22.6811 20.7386 27.6271C20.7386 33.617 16.3555 37.9177 10.386 37.9177C4.41134 37.9177 -0.00732422 33.617 -0.00732422 27.6271C-0.00732422 23.1332 2.47911 19.6114 6.24695 18.1328V20.8887C4.13167 22.2052 2.78423 24.591 2.78423 27.6271C2.78423 32.3499 6.04356 35.4984 10.386 35.4984C14.7284 35.4984 17.9471 32.3499 17.9471 27.6271C17.9471 24.0632 16.1114 21.3957 13.3453 20.3014V17.7504ZM34.0405 17.3751C30.5116 17.3751 27.7557 18.7958 26.2811 21.2533V17.5287H23.6471V37.7255H26.398V27.1278C26.398 22.5204 29.154 19.8326 33.532 19.8326C37.4117 19.8326 39.6592 22.0211 39.6592 26.2832V37.7255H42.4152V26.0147C42.4152 20.2165 39.0033 17.3751 34.0405 17.3751ZM59.8408 35.4572C62.5764 35.4572 63.9442 34.0909 63.9442 31.3593V26.9468L49.3966 30.288C48.8372 30.4837 48.5576 30.8341 48.5576 31.3593C48.5576 34.0909 49.9203 35.4572 52.661 35.4572H59.8408ZM11.5606 15.0575C11.5606 14.5866 11.3724 14.1351 11.0369 13.8025C10.7063 13.4695 10.2538 13.2829 9.78595 13.2829H9.78092C9.31312 13.2829 8.86053 13.4695 8.52493 13.8025C8.19442 14.1351 8.00627 14.5866 8.00627 15.0575V26.6655C8.00627 27.1364 8.19442 27.5874 8.52493 27.9205C8.86053 28.253 9.31312 28.4402 9.78092 28.4402H9.78595C10.2538 28.4402 10.7063 28.253 11.0369 27.9205C11.3724 27.5874 11.5606 27.1364 11.5606 26.6655V15.0575ZM71.6426 18.535C70.2748 18.535 69.5884 17.8485 69.5884 16.4827C69.5884 15.1098 70.2748 14.4305 71.6426 14.4305C73.0155 14.4305 73.6918 15.1098 73.6918 16.4827C73.6918 17.8485 73.0155 18.535 71.6426 18.535Z" fill="white"/>
</svg>
